<svg xmlns="http://www.w3.org/2000/svg" viewBox="0 0 48 48"><defs><style>.cls-1{fill:#dad7e5}.cls-2{fill:#edebf2}.cls-4{fill:#9dcc6b}.cls-5{fill:#db5669}.cls-6{fill:#f26674}.cls-7{fill:#fc6}.cls-8{fill:#ffde76}.cls-9{fill:#9fdbf3}.cls-10{fill:#b2e5fb}.cls-11{fill:#425b72}.cls-12{fill:#b5e08c}</style></defs><g id="Ecommerce_growth" data-name="Ecommerce growth"><path class="cls-1" d="M11 25.82h26V47H11z"/><path class="cls-2" d="M37 25.82V45H16a3 3 0 0 1-3-3V25.82z"/><path d="M23 16V9a1 1 0 0 1 2 0v7a1 1 0 0 1-2 0z" style="fill:#be927c"/><path class="cls-4" d="M24 9h-4a8 8 0 0 1-8-8h4a8 8 0 0 1 8 8zM24 9h4a8 8 0 0 0 8-8h-4a8 8 0 0 0-8 8z"/><path class="cls-1" d="M11 15h26v4H11z"/><path class="cls-2" d="M37 15v2H15a2 2 0 0 1-2-2z"/><path class="cls-5" d="M15 25v1a3 3 0 0 1-6 0v-1z"/><path class="cls-6" d="M15 25v1a3 3 0 0 1-2 2.82A3 3 0 0 1 11 26v-1z"/><path class="cls-7" d="M21 25v1a3 3 0 0 1-6 0v-1z"/><path class="cls-5" d="M27 25v1a3 3 0 0 1-6 0v-1z"/><path class="cls-7" d="M33 25v1a3 3 0 0 1-6 0v-1z"/><path class="cls-5" d="M39 25v1a3 3 0 0 1-6 0v-1zM17 19l-2 6H9l2-6h6z"/><path class="cls-6" d="m17 19-1.33 4h-2.61a1 1 0 0 1-1-1.32L13 19z"/><path class="cls-7" d="m22 19-1 6h-6l2-6h5z"/><path class="cls-8" d="m22 19-.67 4h-2.27a1 1 0 0 1-.95-1.32L19 19z"/><path class="cls-5" d="M39 25h-6l-2-6h6l2 6z"/><path class="cls-6" d="M38.33 23c-3.28 0-3.93.21-4.23-.68L33 19h4z"/><path class="cls-7" d="M33 25h-6l-1-6h5l2 6z"/><path class="cls-8" d="M32.33 23h-2.81a1 1 0 0 1-1-.83L28 19h3z"/><path class="cls-5" d="M27 25h-6l1-6h4l1 6z"/><path class="cls-6" d="M26.67 23h-2.16a1 1 0 0 1-1-1.17L24 19h2z"/><path class="cls-9" d="M16 35h8v12h-8z"/><path class="cls-10" d="M24 35v10h-3a3 3 0 0 1-3-3v-7z"/><path class="cls-9" d="M24 35h8v12h-8z"/><path class="cls-11" d="M21 42a1 1 0 1 1 .71-1.71A1 1 0 0 1 21 42z"/><path class="cls-12" d="M23.75 7H21a8 8 0 0 1-7.75-6H16a8 8 0 0 1 7.75 6zM24.25 7H27a8 8 0 0 0 7.75-6H32a8 8 0 0 0-7.75 6z"/><path d="M39 48H9a1 1 0 0 1 0-2h30a1 1 0 0 1 0 2z" style="fill:#919191"/><path class="cls-10" d="M32 35v10h-3a3 3 0 0 1-3-3v-7z"/><path class="cls-11" d="M27 42a1 1 0 0 1-1-1 1 1 0 1 1 1 1z"/><path class="cls-8" d="M21 25v1a3 3 0 0 1-2 2.82A3 3 0 0 1 17 26v-1z"/><path class="cls-6" d="M27 25v1a3 3 0 0 1-2 2.82A3 3 0 0 1 23 26v-1z"/><path class="cls-8" d="M33 25v1a3 3 0 0 1-2 2.82A3 3 0 0 1 29 26v-1z"/><path class="cls-6" d="M39 25v1a3 3 0 0 1-2 2.82A3 3 0 0 1 35 26v-1z"/></g></svg>